<svg xmlns="http://www.w3.org/2000/svg" width="255" height="44"><defs><clipPath id="a"><path d="M61.654 505.771h500.314v86.74H61.654v-86.74z"/></clipPath></defs><g clip-path="url(#a)" transform="matrix(.53704 0 0 -.53704 -38.342 316.714)"><path d="M495.253 569.382h15.68c7.686 0 12.399-3.432 12.399-10.096v-.203c0-5.956-4.407-9.995-12.092-9.995h-15.987l28.104-36.347h18.831l-19.032 24.642c9.596 3.349 16.162 10.849 16.162 22.508v.203c0 6.662-2.151 12.216-6.148 16.153-4.714 4.645-11.786 7.168-20.906 7.168h-32.792V512.74h15.78v56.641zm-141.547 14.033V539.9l-33.611 43.515-21.835-.001 7.282-9.427v-61.246h15.576v43.96l33.99-43.96h14.174v70.674h-15.576zm-79.045 0V539.9l-33.61 43.515-21.835-.001 7.282-9.427v-61.246h15.576v43.96l33.991-43.96h14.172v70.674h-15.576zm140.596 0h54.108v-13.831h-38.429v-14.337h33.817v-13.832h-33.817v-14.843h38.941v-13.83h-54.62v70.673zm-31.096 0h15.782V512.74H384.16v70.674zm-182.708-35.539v.202c0 12.116-9.019 22.213-21.725 22.213-12.708 0-21.521-9.895-21.521-22.011v-.202c0-12.115 9.019-22.213 21.725-22.213 12.709 0 21.521 9.895 21.521 22.011m-59.744 0v.202c0 20.092 16.09 36.548 38.223 36.548 22.136 0 38.02-16.254 38.02-36.346v-.202c0-20.093-16.089-36.548-38.224-36.548-22.135 0-38.02 16.254-38.02 36.346m-32.464-21.505c6.969 0 11.17 2.423 11.17 7.673v.202c0 4.745-3.587 7.673-11.682 7.673H90.49v-15.548h18.754zm-4.2 28.472c6.967 0 11.374 2.22 11.374 7.471v.202c0 4.644-3.69 7.27-10.352 7.27H90.49v-14.943h14.553zm-29.925 28.572h33.306c8.197 0 14.654-2.22 18.752-6.26 3.28-3.23 4.919-7.168 4.919-12.013v-.203c0-7.976-4.304-12.418-9.426-15.245 8.3-3.13 13.423-7.875 13.423-17.366v-.202c0-12.922-10.658-19.385-26.85-19.385H75.12v70.674z" fill="#fff"/></g></svg>