<svg xmlns="http://www.w3.org/2000/svg" viewBox="-44 6.9 120 18"><path d="M43.5 24.7c-3.9 0-6.2-3-6.2-6.6 0-4.4 3.2-7.4 6.8-7.4 3.6 0 5.4 1.9 5.4 4.4v.8c0 .2-.2.3-.4.3h-7.4c0 3.7 1.7 5.4 4.5 5.4 1.4 0 2.1-.5 2.9-1.3.1-.1.3-.1.4-.1.1.1.2.3.1.4-1.2 2.5-3.1 4.1-6.1 4.1m-1.8-9.3s2.8-.1 3.6-.1c.2 0 .3-.1.3-.3-.1-1.9-.6-3.6-1.8-3.6-.3 0-.6.1-.9.4-.8.8-1.2 2-1.2 3.6M4.2 17.8c-.1 2.2-1 3.9-2.2 4.9-1.4 1.3-3.2 2-5.4 1.9-4.5-.2-6.9-3.6-6.8-7.1.1-2.2 1-3.9 2.2-4.9 1.4-1.3 3.2-2 5.4-1.9 4.4.2 6.9 3.6 6.8 7.1m-6.1 5.5c.7-1.2.9-3.3.9-5 .1-3.6-.6-6.8-2.1-6.8-.7 0-1 .4-1.2.7-.7 1.2-.9 3.3-.9 5 0 3.5.7 6.8 2.1 6.8.7 0 1-.3 1.2-.7m-9.6-5.5c-.1 2.2-1 3.9-2.2 4.9-1.4 1.3-3.2 2-5.4 1.9-4.5-.2-6.9-3.6-6.8-7.1.1-2.2 1-3.9 2.2-4.9 1.4-1.3 3.2-2 5.4-1.9 4.5.2 6.9 3.6 6.8 7.1m-6 5.5c.7-1.2.9-3.3.9-5 .1-3.6-.6-6.8-2.1-6.8-.7 0-1 .4-1.2.7-.7 1.2-.9 3.3-.9 5-.1 3.6.6 6.8 2.1 6.8.6 0 1-.3 1.2-.7M71.8 22c-.6 0-1.1-.1-1.5-.5-.3-.3-.5-.8-.5-1.6v-6.6c0-.1.1-.2.2-.2.5 0 1-.1 1.4-.4l1.9-1.1c.1-.1.2-.2.2-.3 0-.2-.2-.3-.3-.3h-3.3V9.5c0-.2-.1-.3-.2-.4-.2-.2-.5-.2-.6 0l-5.2 3.4c-.1.1-.1.2-.1.3 0 .2.1.3.3.3h.7c.5 0 .4.4.4.8v6.8c0 1.4.3 2.3 1 3 .6.6 1.9 1 3.3 1 2.5 0 4-1.3 4.8-3.1.1-.1 0-.3-.1-.4-.1-.1-.3-.1-.4 0-.7.4-1.3.8-2 .8m-7.7.5c-.1-.1-.2-.1-.3 0-.2.1-.4.2-.6.2-.5 0-.9-.3-1-.7 0-.1 0-.2-.1-.4v-6.9c0-1.4-.2-2.3-.9-3.1-.6-.6-1.7-1-3.1-1h-.2c-3.2 0-5.7 1.7-6.6 3.3-.2.3-.3.6-.3 1 0 1.1.9 2 2 2s2-.9 2-2c0-.8-.5-1.5-1.2-1.8.2-.4.8-1.2 1.8-1.2 1.4 0 1.9 2.1 1.9 3.2v1.2-.1c-5.5 2.6-6.8 4-6.8 5.4v.3c.1 1.4 1.2 2.7 2.9 2.7 1.3 0 2.3-.5 3.5-1.6l.4-.3.1-.1c.4 1 1.1 1.7 2.2 1.9.3.1.5.1.8.1 1.7 0 3.1-1.2 3.7-1.9-.1 0-.1-.1-.2-.2zm-6.6-.4c-.2.2-.9.3-1.3.2-1.6-.3-2.1-2.9-.5-4.2.4-.3 1-.7 1.8-1.1v5.1zm-90.6-8.4c1.3 0 3.4-.8 3.4-3.3 0-2.7-3-3.6-6.1-3.6h-6c-.2 0-.4.2-.4.4s.1.3.3.4c.6.2.9 0 .9 1V23c0 .9-.3.7-.9 1-.2.1-.3.2-.3.4s.2.4.4.4h6.8c5.3 0 8-1.7 8-5.8-.1-3.8-3.1-5.3-6.1-5.3m-3.2-6.1h.5c1.3.1 2.7.9 2.7 2.9 0 2.3-1.7 3.1-3.2 3.1v-6zm.6 16.5h-.6v-9.8c.8 0 4.5.2 4.5 4.5.1 4.9-2.9 5.3-3.9 5.3m65.9-10.4c1.3 0 3.4-.8 3.4-3.3 0-2.7-3-3.6-6.1-3.6h-5.9c-.2 0-.4.2-.4.4s.1.3.3.4c.6.2.9 0 .9 1V23c0 .6.1.7-.5 1-.2.1-.3.2-.3.4s.2.4.4.4h6.4c5.3 0 8-1.7 8-5.8-.2-3.8-3.2-5.3-6.2-5.3M27 7.6h.5c1.3.1 2.7.9 2.7 2.9 0 2.3-1.7 3.1-3.2 3.1v-6zm.7 16.5h-.6v-9.8c.8 0 4.5.2 4.5 4.5 0 4.9-2.9 5.3-3.9 5.3m-7.6-.1h-.2c-.6-.1-1.1-.4-1.5-1.3l-2.6-6.3c-.7-1.9 0-4.3 2.8-4.5h.9c.2-.1.4-.3.4-.5s-.2-.4-.4-.4h-6c-.2 0-.4.2-.4.4s.2.4.4.4h.2c.2 0 .5.1.6.4.1.3 0 .6-.2.7l-3.7 2.4V8.4c0-.3-.1-.5-.3-.6-.1-.1-.4-.2-.6-.2-.2 0-4.8 1-4.8 1-.2 0-.3.2-.3.4s0 .3.2.3c.4.1 1 .3 1 .9v13c0 .5-.1.5-.7.7h-.2c-.2 0-.3.2-.3.4s.2.4.4.4H11c.2 0 .4-.2.4-.4s-.1-.3-.5-.4c-.5-.1-.5-.2-.5-.6v-7.2c.3 0 .8.3 1.1 1l2.2 5.8c.3.8.3 1-.2 1.1h-.1c-.2 0-.3.2-.3.3 0 .2.2.4.4.4h6.4c.2 0 .4-.2.4-.4.1-.2-.1-.3-.2-.3" fill="#fff"/></svg>