<?xml version="1.0" encoding="UTF-8"?>
<svg width="375px" height="200px" viewBox="0 0 375 200" version="1.1" xmlns="http://www.w3.org/2000/svg" xmlns:xlink="http://www.w3.org/1999/xlink">
    <!-- Generator: Sketch 42 (36781) - http://www.bohemiancoding.com/sketch -->
    <title>logo/bonnier</title>
    <desc>Created with Sketch.</desc>
    <defs></defs>
    <g id="Symbols" stroke="none" stroke-width="1" fill="none" fill-rule="evenodd">
        <g id="logo/bonnier">
            <rect id="boundary" x="0" y="0" width="375" height="200"></rect>
            <g id="Albert-Bonniers-Forlag" transform="translate(98.000000, 41.000000)" fill="#FFFFFF">
                <path d="M115.516336,41.4012332 L111.649299,48.4244855 L123.967968,48.4244855 C123.967968,48.4244855 144.950685,47.4924384 144.950685,68.3549586 C144.950685,89.8381529 127.477522,90.7090652 124.007343,90.7090652 C118.738349,90.7090652 112.597925,90.5992297 109.944259,87.4051938 C108.038718,85.1110834 108.12213,79.0965558 108.12213,79.0965558 L108.12213,9.06505208 C108.12213,9.06505208 115.01845,8.76145029 117.452963,8.76145029 C118.481376,8.76145029 137.530057,7.60869605 137.530057,23.6306847 L137.52643,23.716688 C137.827441,39.8236437 124.132721,41.5856739 118.159641,41.3587496 L115.543795,41.3587496 L115.516336,41.4012332 Z M130.751862,44.0450556 C134.00496,43.725911 149.571028,38.7962676 149.571028,22.7737609 C149.571028,7.8392469 135.124556,3.44686469 122.464983,3.44686469 L89.0641237,3.44686469 C89.0641237,3.44686469 93.1710374,5.48296543 95.2024753,8.56198495 C97.018387,11.3146066 96.7370632,17.7689942 96.7370632,17.7689942 L96.7370632,64.8272716 C96.7370632,64.8272716 80.1130519,28.5105913 78.578464,25.4414155 C77.0438761,22.3727578 67.4001155,0.396340221 67.4001155,0.396340221 C67.4001155,0.396340221 56.5730332,24.9300589 55.2943827,27.9992347 C54.4162171,30.1068321 41.4131493,59.7245856 35.2602912,73.6270607 C33.3754732,77.8852572 31.9356961,80.9160941 31.9356961,80.9160941 C31.9356961,80.9160941 29.2183047,86.9155971 24.8595984,91.2737852 C23.0514581,93.0819256 18.6580397,96.5407064 18.1995285,96.5407064 C17.7415353,96.5407064 43.5404342,96.5407064 43.5404342,96.5407064 C43.5404342,96.5407064 40.4640051,95.5195475 39.4485452,90.4028729 C38.5211609,85.7322754 42.1016933,77.2925601 42.1016933,77.2925601 L47.1100866,64.6754707 L74.2197577,64.6754707 L78.3225266,57.1548503 L50.1896242,57.1548503 L65.534985,21.8614012 L93.6678874,82.2185769 C93.6678874,82.2185769 95.9697692,86.5664032 94.4351814,90.6582922 C93.2850176,93.7253956 87.0181793,96.5407064 87.0181793,96.5407064 C87.0181793,96.5407064 97.5888061,96.256274 108.131974,96.256274 C114.529371,96.256274 122.679992,96.5407064 125.11036,96.5407064 C130.026015,96.5407064 157.606114,96.2868414 157.606114,68.9196787 C157.606114,46.7728089 135.667517,44.3336327 130.751862,44.0450556 L130.751862,44.0450556 Z" id="Fill-1"></path>
                <path d="M4.12711921,109.2925 L3.06710341,112.624866 L5.20060541,112.624866 L4.12711921,109.2925 Z M6.39946981,116.389321 L5.6746594,114.11697 L2.59356751,114.11697 L1.84026204,116.389321 L0,116.389321 L3.3323664,107.186975 L4.90788354,107.186975 L8.24024995,116.389321 L6.39946981,116.389321 L6.39946981,116.389321 Z" id="Fill-2"></path>
                <polyline id="Fill-3" points="9.9411453 116.389321 9.9411453 107.186975 11.6979946 107.186975 11.6979946 114.897217 15.4624495 114.897217 15.4624495 116.389321 9.9411453 116.389321"></polyline>
                <path d="M20.0770931,112.443534 L18.9336645,112.443534 L18.9336645,114.981148 L20.0770931,114.981148 C20.6205714,114.981148 20.8718459,114.939182 21.1365908,114.813804 C21.527232,114.618483 21.7645181,114.214372 21.7645181,113.740318 C21.7645181,112.903599 21.1645678,112.443534 20.0770931,112.443534 Z M20.0770931,108.58116 L18.9336645,108.58116 L18.9336645,110.95143 L19.9796919,110.95143 C20.9697653,110.95143 21.4992551,110.53333 21.4992551,109.752565 C21.4992551,109.013248 20.9697653,108.58116 20.0770931,108.58116 Z M20.843869,116.389321 L17.0934025,116.389321 L17.0934025,107.186975 L20.4257689,107.186975 C21.6246333,107.186975 22.2245836,107.34033 22.7266145,107.800913 C23.1726916,108.191037 23.451425,108.846423 23.451425,109.445855 C23.451425,109.961874 23.2561044,110.505353 22.9214171,110.895994 C22.5173055,111.356059 22.1406527,111.523403 21.4153242,111.565368 C22.8100273,111.592827 23.688711,112.49897 23.688711,113.93512 C23.688711,115.525144 22.6846491,116.389321 20.843869,116.389321 L20.843869,116.389321 Z" id="Fill-4"></path>
                <polyline id="Fill-5" points="25.8351653 116.389321 25.8351653 107.186975 31.4404004 107.186975 31.4404004 108.678561 27.5920146 108.678561 27.5920146 110.95143 30.7430488 110.95143 30.7430488 112.443534 27.5920146 112.443534 27.5920146 114.897217 31.6217325 114.897217 31.6217325 116.389321 25.8351653 116.389321"></polyline>
                <path d="M36.6684647,108.678561 L35.5250361,108.678561 L35.5250361,111.216693 L36.6684647,111.216693 C37.7839163,111.216693 38.2719588,110.826051 38.2719588,109.90592 C38.2719588,109.027755 37.8118932,108.678561 36.6684647,108.678561 Z M38.5092448,116.389321 L36.4042378,112.708279 L35.5250361,112.708279 L35.5250361,116.389321 L33.7687049,116.389321 L33.7687049,107.186975 L36.8358083,107.186975 C38.1745575,107.186975 38.7879782,107.354318 39.3314565,107.870338 C39.8334874,108.330403 40.0847619,108.999778 40.0847619,109.863955 C40.0847619,110.575295 39.9174183,111.14675 39.582731,111.592827 C39.2340552,112.039422 38.9133564,112.234225 38.1465805,112.443534 L40.4334377,116.389321 L38.5092448,116.389321 L38.5092448,116.389321 Z" id="Fill-6"></path>
                <polyline id="Fill-7" points="45.633525 108.678561 45.633525 116.389321 43.8766758 116.389321 43.8766758 108.678561 41.1162827 108.678561 41.1162827 107.186975 48.3944362 107.186975 48.3944362 108.678561 45.633525 108.678561"></polyline>
                <path d="M56.9968323,112.443534 L55.8539218,112.443534 L55.8539218,114.981148 L56.9968323,114.981148 C57.5408287,114.981148 57.7915851,114.939182 58.0568481,114.813804 C58.4469712,114.618483 58.6842573,114.214372 58.6842573,113.740318 C58.6842573,112.903599 58.084307,112.443534 56.9968323,112.443534 Z M56.9968323,108.58116 L55.8539218,108.58116 L55.8539218,110.95143 L56.899431,110.95143 C57.8889864,110.95143 58.4189943,110.53333 58.4189943,109.752565 C58.4189943,109.013248 57.8889864,108.58116 56.9968323,108.58116 Z M57.7641262,116.389321 L54.0131417,116.389321 L54.0131417,107.186975 L57.3455081,107.186975 C58.5443725,107.186975 59.1438047,107.34033 59.6458356,107.800913 C60.0924307,108.191037 60.3711641,108.846423 60.3711641,109.445855 C60.3711641,109.961874 60.1758435,110.505353 59.8411562,110.895994 C59.4370446,111.356059 59.06091,111.523403 58.3355815,111.565368 C59.7297665,111.592827 60.6079321,112.49897 60.6079321,113.93512 C60.6079321,115.525144 59.6043883,116.389321 57.7641262,116.389321 L57.7641262,116.389321 Z" id="Fill-8"></path>
                <path d="M66.8265879,108.539194 C65.0837271,108.539194 63.8009318,109.933897 63.8009318,111.788148 C63.8009318,113.656387 65.0837271,115.037101 66.8265879,115.037101 C68.5554602,115.037101 69.8377374,113.656387 69.8377374,111.788148 C69.8377374,109.933897 68.5554602,108.539194 66.8265879,108.539194 Z M66.8265879,116.570653 C63.954287,116.570653 61.9326928,114.590506 61.9326928,111.788148 C61.9187043,108.943824 63.9123215,107.019631 66.8265879,107.019631 C69.7263476,107.019631 71.7059764,108.943824 71.7059764,111.788148 C71.7059764,114.590506 69.6843822,116.570653 66.8265879,116.570653 L66.8265879,116.570653 Z" id="Fill-9"></path>
                <path d="M79.9462263,116.473252 L76.0004392,110.519341 C75.9724623,110.477894 75.9165083,110.351997 75.8051186,110.156677 C75.7491647,110.045287 75.7077174,109.975345 75.6937289,109.961874 C75.6382931,109.849966 75.609798,109.794531 75.5683507,109.641175 L75.5683507,116.389321 L73.8949142,116.389321 L73.8949142,107.186975 L75.9165083,107.186975 L79.7788827,113.238287 C79.7928711,113.266264 79.8343185,113.335688 79.8762839,113.433607 C79.9182493,113.531009 79.9462263,113.586963 79.9602148,113.614421 L80.0436276,113.851707 L80.1275584,114.019569 L80.1275584,107.186975 L81.7864883,107.186975 L81.7864883,116.473252 L79.9462263,116.473252" id="Fill-10"></path>
                <path d="M90.9468693,116.473252 L87.0010822,110.519341 C86.9736234,110.477894 86.9171514,110.351997 86.8057616,110.156677 C86.7498077,110.045287 86.7083604,109.975345 86.6943719,109.961874 C86.638418,109.849966 86.6109591,109.794531 86.5689937,109.641175 L86.5689937,116.389321 L84.8955572,116.389321 L84.8955572,107.186975 L86.9171514,107.186975 L90.7795257,113.238287 C90.7935141,113.266264 90.8354796,113.335688 90.8769269,113.433607 C90.9188924,113.531009 90.9468693,113.586963 90.9608578,113.614421 L91.0442706,113.851707 L91.1282014,114.019569 L91.1282014,107.186975 L92.7871314,107.186975 L92.7871314,116.473252 L90.9468693,116.473252" id="Fill-11"></path>
                <polygon id="Fill-12" points="95.770822 116.389321 97.5271532 116.389321 97.5271532 107.186975 95.770822 107.186975"></polygon>
                <polyline id="Fill-13" points="100.413443 116.389321 100.413443 107.186975 106.01816 107.186975 106.01816 108.678561 102.170292 108.678561 102.170292 110.95143 105.321844 110.95143 105.321844 112.443534 102.170292 112.443534 102.170292 114.897217 106.20001 114.897217 106.20001 116.389321 100.413443 116.389321"></polyline>
                <path d="M111.246742,108.678561 L110.103831,108.678561 L110.103831,111.216693 L111.246742,111.216693 C112.362194,111.216693 112.850236,110.826051 112.850236,109.90592 C112.850236,109.027755 112.39017,108.678561 111.246742,108.678561 Z M113.087522,116.389321 L110.981479,112.708279 L110.103831,112.708279 L110.103831,116.389321 L108.346982,116.389321 L108.346982,107.186975 L111.413567,107.186975 C112.752317,107.186975 113.365737,107.354318 113.910252,107.870338 C114.411765,108.330403 114.663039,108.999778 114.663039,109.863955 C114.663039,110.575295 114.495696,111.14675 114.161008,111.592827 C113.812332,112.039422 113.491634,112.234225 112.724858,112.443534 L115.011197,116.389321 L113.087522,116.389321 L113.087522,116.389321 Z" id="Fill-14"></path>
                <path d="M122.255156,109.376431 C121.279071,108.943824 120.484319,108.720526 119.870898,108.720526 C119.048168,108.720526 118.51816,109.055214 118.51816,109.571751 C118.51816,109.961874 118.74094,110.19916 119.396326,110.547318 C120.804499,111.300623 121.725148,111.886067 122.157237,112.318156 C122.547878,112.708279 122.784646,113.3217 122.784646,113.963615 C122.784646,115.608557 121.585782,116.570653 119.549681,116.570653 C119.270948,116.570653 118.992214,116.556665 118.727469,116.514699 C118.072083,116.431286 117.765373,116.319379 116.803276,115.873302 C116.677898,115.817866 116.469107,115.719946 116.203844,115.594568 L116.942643,113.977086 C117.612018,114.33975 117.890751,114.479117 118.253415,114.618483 C118.713481,114.786345 119.214994,114.883746 119.578176,114.883746 C120.386917,114.883746 120.916407,114.520564 120.916407,113.963615 C120.916407,113.572974 120.707098,113.308229 120.107666,112.973542 L118.685504,112.164282 C117.054551,111.230681 116.552002,110.61726 116.552002,109.613198 C116.552002,109.153133 116.691887,108.678561 116.914666,108.330403 C117.068021,108.093635 117.305307,107.856349 117.598029,107.64704 C118.267404,107.186975 118.838859,107.034138 119.912345,107.034138 C120.526284,107.034138 121.069762,107.103562 121.641736,107.270905 C122.087813,107.410272 122.338569,107.507673 122.95199,107.800913 L122.255156,109.376431" id="Fill-15"></path>
                <polyline id="Fill-16" points="130.432199 108.678561 130.432199 111.048831 133.666646 111.048831 133.666646 112.526947 130.432199 112.526947 130.432199 116.389321 128.67535 116.389321 128.67535 107.186975 134.377468 107.186975 134.377468 108.678561 130.432199 108.678561"></polyline>
                <path d="M141.878919,106.635725 C141.460819,106.635725 141.126132,106.287567 141.126132,105.868949 C141.126132,105.450849 141.460819,105.116162 141.878919,105.116162 C142.297019,105.116162 142.645695,105.450849 142.645695,105.868949 C142.645695,106.287567 142.297019,106.635725 141.878919,106.635725 Z M138.825286,106.622255 C138.407186,106.622255 138.072499,106.287567 138.072499,105.868949 C138.072499,105.450849 138.407186,105.102691 138.825286,105.102691 C139.243904,105.102691 139.59258,105.450849 139.59258,105.868949 C139.59258,106.287567 139.243904,106.622255 138.825286,106.622255 Z M140.359356,108.539194 C138.616495,108.539194 137.3337,109.933897 137.3337,111.788148 C137.3337,113.656387 138.616495,115.037101 140.359356,115.037101 C142.08771,115.037101 143.371023,113.656387 143.371023,111.788148 C143.371023,109.933897 142.08771,108.539194 140.359356,108.539194 Z M140.359356,116.570653 C137.487055,116.570653 135.465461,114.590506 135.465461,111.788148 C135.451472,108.943824 137.44509,107.019631 140.359356,107.019631 C143.259116,107.019631 145.238744,108.943824 145.238744,111.788148 C145.238744,114.590506 143.21715,116.570653 140.359356,116.570653 L140.359356,116.570653 Z" id="Fill-17"></path>
                <path d="M150.244547,108.678561 L149.101119,108.678561 L149.101119,111.216693 L150.244547,111.216693 C151.359481,111.216693 151.847523,110.826051 151.847523,109.90592 C151.847523,109.027755 151.387458,108.678561 150.244547,108.678561 Z M152.084809,116.389321 L149.979284,112.708279 L149.101119,112.708279 L149.101119,116.389321 L147.344269,116.389321 L147.344269,107.186975 L150.411373,107.186975 C151.750122,107.186975 152.363543,107.354318 152.907539,107.870338 C153.409052,108.330403 153.660326,108.999778 153.660326,109.863955 C153.660326,110.575295 153.492983,111.14675 153.158295,111.592827 C152.80962,112.039422 152.488921,112.234225 151.722145,112.443534 L154.008484,116.389321 L152.084809,116.389321 L152.084809,116.389321 Z" id="Fill-18"></path>
                <polyline id="Fill-19" points="155.9047 116.389321 155.9047 107.186975 157.662067 107.186975 157.662067 114.897217 161.426004 114.897217 161.426004 116.389321 155.9047 116.389321"></polyline>
                <path d="M166.054636,109.2925 L164.995657,112.624866 L167.128641,112.624866 L166.054636,109.2925 Z M168.327505,116.389321 L167.602695,114.11697 L164.521085,114.11697 L163.768297,116.389321 L161.928035,116.389321 L165.260402,107.186975 L166.836437,107.186975 L170.168285,116.389321 L168.327505,116.389321 L168.327505,116.389321 Z" id="Fill-20"></path>
                <path d="M178.533395,116.263943 C177.557828,116.486722 176.985855,116.570653 176.219597,116.570653 C173.165446,116.570653 171.046451,114.618483 171.046451,111.774159 C171.046451,110.379974 171.576459,109.166603 172.566014,108.260461 C173.514122,107.396284 174.57362,107.034138 176.163643,107.034138 C176.833018,107.034138 177.501875,107.103562 178.087318,107.242929 C178.533395,107.354318 178.812647,107.452238 179.454044,107.730971 L179.035426,109.195098 C178.700739,109.06972 178.450501,108.985789 178.282639,108.929835 C177.627771,108.707056 176.972385,108.595148 176.386423,108.595148 C174.322863,108.595148 172.886713,109.863955 172.886713,111.690747 C172.886713,113.572974 174.46223,115.009124 176.512319,115.009124 C176.930419,115.009124 177.167187,114.967159 177.711184,114.813804 L177.711184,112.27619 L179.468033,112.27619 L179.468033,116.040645 C179.049415,116.138047 178.742704,116.207989 178.533395,116.263943" id="Fill-21"></path>
            </g>
        </g>
    </g>
</svg>