<?xml version="1.0" encoding="utf-8"?><svg version="1.1" id="Layer_1" xmlns="http://www.w3.org/2000/svg" xmlns:xlink="http://www.w3.org/1999/xlink" x="0px" y="0px" viewBox="-44 6.9 120 18" enable-background="new -44 6.9 120 18" xml:space="preserve"><g><path fill="#ffffff" d="M43.5,24.7c-3.9,0-6.2-3-6.2-6.6c0-4.4,3.2-7.4,6.8-7.4c3.6,0,5.4,1.9,5.4,4.4c0,0.3,0,0.6,0,0.8c0,0.2-0.2,0.3-0.4,0.3h-7.4c0,3.7,1.7,5.4,4.5,5.4c1.4,0,2.1-0.5,2.9-1.3c0.1-0.1,0.3-0.1,0.4-0.1l0,0c0.1,0.1,0.2,0.3,0.1,0.4C48.4,23.1,46.5,24.7,43.5,24.7 M41.7,15.4c0,0,2.8-0.1,3.6-0.1c0.2,0,0.3-0.1,0.3-0.3c-0.1-1.9-0.6-3.6-1.8-3.6c-0.3,0-0.6,0.1-0.9,0.4C42.1,12.6,41.7,13.8,41.7,15.4"/><path fill="#ffffff" d="M4.2,17.8c-0.1,2.2-1,3.9-2.2,4.9c-1.4,1.3-3.2,2-5.4,1.9c-4.5-0.2-6.9-3.6-6.8-7.1c0.1-2.2,1-3.9,2.2-4.9c1.4-1.3,3.2-2,5.4-1.9C1.8,10.9,4.3,14.3,4.2,17.8 M-1.9,23.3c0.7-1.2,0.9-3.3,0.9-5c0.1-3.6-0.6-6.8-2.1-6.8c-0.7,0-1,0.4-1.2,0.7c-0.7,1.2-0.9,3.3-0.9,5C-5.2,20.7-4.5,24-3.1,24C-2.4,24-2.1,23.7-1.9,23.3"/><path fill="#ffffff" d="M-11.5,17.8c-0.1,2.2-1,3.9-2.2,4.9c-1.4,1.3-3.2,2-5.4,1.9c-4.5-0.2-6.9-3.6-6.8-7.1c0.1-2.2,1-3.9,2.2-4.9c1.4-1.3,3.2-2,5.4-1.9C-13.8,10.9-11.4,14.3-11.5,17.8 M-17.5,23.3c0.7-1.2,0.9-3.3,0.9-5c0.1-3.6-0.6-6.8-2.1-6.8c-0.7,0-1,0.4-1.2,0.7c-0.7,1.2-0.9,3.3-0.9,5c-0.1,3.6,0.6,6.8,2.1,6.8C-18.1,24-17.7,23.7-17.5,23.3"/><path fill="#ffffff" d="M71.8,22c-0.6,0-1.1-0.1-1.5-0.5c-0.3-0.3-0.5-0.8-0.5-1.6v-6.6c0-0.1,0.1-0.2,0.2-0.2l0,0c0.5,0,1-0.1,1.4-0.4l1.9-1.1c0.1-0.1,0.2-0.2,0.2-0.3l0,0c0-0.2-0.2-0.3-0.3-0.3h-3.3V9.5c0-0.2-0.1-0.3-0.2-0.4l0,0c-0.2-0.2-0.5-0.2-0.6,0l-5.2,3.4c-0.1,0.1-0.1,0.2-0.1,0.3l0,0c0,0.2,0.1,0.3,0.3,0.3h0.7c0.5,0,0.4,0.4,0.4,0.8v6.8c0,1.4,0.3,2.3,1,3c0.6,0.6,1.9,1,3.3,1c2.5,0,4-1.3,4.8-3.1c0.1-0.1,0-0.3-0.1-0.4l0,0c-0.1-0.1-0.3-0.1-0.4,0C73.1,21.6,72.5,22,71.8,22"/><path fill="#ffffff" d="M64.1,22.5c-0.1-0.1-0.2-0.1-0.3,0c-0.2,0.1-0.4,0.2-0.6,0.2c-0.5,0-0.9-0.3-1-0.7c0-0.1,0-0.2-0.1-0.4v-0.2c0-0.1,0-0.2,0-0.3v-4.5c0-0.1,0-0.2,0-0.4l0,0v-1.5c0-1.4-0.2-2.3-0.9-3.1c-0.6-0.6-1.7-1-3.1-1c-0.1,0-0.1,0-0.2,0l0,0c-3.2,0-5.7,1.7-6.6,3.3c-0.2,0.3-0.3,0.6-0.3,1c0,1.1,0.9,2,2,2s2-0.9,2-2c0-0.8-0.5-1.5-1.2-1.8c0.2-0.4,0.8-1.2,1.8-1.2c1.4,0,1.9,2.1,1.9,3.2l0,0c0,0.3,0,0.8,0,1.2v-0.1c-5.5,2.6-6.8,4-6.8,5.4c0,0.1,0,0.2,0,0.3c0.1,1.4,1.2,2.7,2.9,2.7c1.3,0,2.3-0.5,3.5-1.6l0.4-0.3l0.1-0.1c0.4,1,1.1,1.7,2.2,1.9c0.3,0.1,0.5,0.1,0.8,0.1c1.7,0,3.1-1.2,3.7-1.9C64.2,22.7,64.2,22.6,64.1,22.5L64.1,22.5z M57.5,22.1c-0.2,0.2-0.9,0.3-1.3,0.2c-1.6-0.3-2.1-2.9-0.5-4.2c0.4-0.3,1-0.7,1.8-1.1v2.8V22.1z"/><path fill="#ffffff" d="M-33.1,13.7c1.3,0,3.4-0.8,3.4-3.3c0-2.7-3-3.6-6.1-3.6h-5.2h-0.8c-0.2,0-0.4,0.2-0.4,0.4l0,0c0,0.2,0.1,0.3,0.3,0.4c0.6,0.2,0.9,0,0.9,1v14.4c0,0.9-0.3,0.7-0.9,1c-0.2,0.1-0.3,0.2-0.3,0.4l0,0c0,0.2,0.2,0.4,0.4,0.4h6.8c5.3,0,8-1.7,8-5.8C-27.1,15.2-30.1,13.7-33.1,13.7 M-36.3,7.6c0.1,0,0.4,0,0.5,0c1.3,0.1,2.7,0.9,2.7,2.9c0,2.3-1.7,3.1-3.2,3.1V7.6z M-35.7,24.1h-0.6v-9.8c0.8,0,4.5,0.2,4.5,4.5C-31.7,23.7-34.7,24.1-35.7,24.1"/><path fill="#ffffff" d="M30.2,13.7c1.3,0,3.4-0.8,3.4-3.3c0-2.7-3-3.6-6.1-3.6h-5.1h-0.8c-0.2,0-0.4,0.2-0.4,0.4l0,0c0,0.2,0.1,0.3,0.3,0.4c0.6,0.2,0.9,0,0.9,1v14.4c0,0.6,0.1,0.7-0.5,1c-0.2,0.1-0.3,0.2-0.3,0.4l0,0c0,0.2,0.2,0.4,0.4,0.4h6.4c5.3,0,8-1.7,8-5.8C36.2,15.2,33.2,13.7,30.2,13.7 M27,7.6c0.1,0,0.4,0,0.5,0c1.3,0.1,2.7,0.9,2.7,2.9c0,2.3-1.7,3.1-3.2,3.1V7.6z M27.7,24.1h-0.6v-9.8c0.8,0,4.5,0.2,4.5,4.5C31.6,23.7,28.7,24.1,27.7,24.1"/><path fill="#ffffff" d="M20.1,24h-0.2c-0.6-0.1-1.1-0.4-1.5-1.3l-2.6-6.3c-0.7-1.9,0-4.3,2.8-4.5c0.2,0,0.4,0,0.5,0h0.4c0.2-0.1,0.4-0.3,0.4-0.5c0-0.2-0.2-0.4-0.4-0.4h-0.4H14h-0.5c-0.2,0-0.4,0.2-0.4,0.4c0,0.2,0.2,0.4,0.4,0.4h0.2c0.2,0,0.5,0.1,0.6,0.4c0.1,0.3,0,0.6-0.2,0.7l-3.7,2.4V8.4c0-0.3-0.1-0.5-0.3-0.6l0,0C10,7.7,9.7,7.6,9.5,7.6c-0.2,0-4.8,1-4.8,1C4.5,8.6,4.4,8.8,4.4,9l0,0c0,0.2,0,0.3,0.2,0.3c0.4,0.1,1,0.3,1,0.9v13c0,0.5-0.1,0.5-0.7,0.7H4.7c-0.2,0-0.3,0.2-0.3,0.4l0,0c0,0.2,0.2,0.4,0.4,0.4H11c0.2,0,0.4-0.2,0.4-0.4l0,0c0-0.2-0.1-0.3-0.5-0.4c-0.5-0.1-0.5-0.2-0.5-0.6v-7.2c0.3,0,0.8,0.3,1.1,1l2.2,5.8c0.3,0.8,0.3,1-0.2,1.1h-0.1c-0.2,0-0.3,0.2-0.3,0.3l0,0c0,0.2,0.2,0.4,0.4,0.4h6.4c0.2,0,0.4-0.2,0.4-0.4l0,0C20.4,24.1,20.2,24,20.1,24"/></g></svg>
