<?xml version="1.0" encoding="UTF-8"?>
<svg width="375px" height="200px" viewBox="0 0 375 200" version="1.1" xmlns="http://www.w3.org/2000/svg" xmlns:xlink="http://www.w3.org/1999/xlink">
    <!-- Generator: Sketch 42 (36781) - http://www.bohemiancoding.com/sketch -->
    <title>logo/expressen</title>
    <desc>Created with Sketch.</desc>
    <defs></defs>
    <g id="Symbols" stroke="none" stroke-width="1" fill="none" fill-rule="evenodd">
        <g id="logo/expressen">
            <rect id="boundary" x="0" y="0" width="375" height="200"></rect>
            <g id="expressen" transform="translate(20.000000, 74.000000)" fill="#FFFFFF">
                <path d="M54.6308475,49.7668733 L54.8545372,48.1489532 L56.0485704,48.1489532 C59.1087273,48.1489532 58.5862739,46.5310332 58.212947,45.3543641 L55.3024274,32.999849 L46.3461572,45.3543641 C45.1516133,47.4870768 45.1516133,48.1489532 47.31599,48.1489532 L48.4359706,48.1489532 L48.2117702,49.7668733 L38.5839202,49.7668733 L38.9567364,48.1489532 L41.1216237,48.1489532 C42.3902201,48.1489532 43.5096901,46.5310332 44.4054703,45.3543641 L54.6308475,30.4994271 L48.4359706,5.7163444 C48.2117702,4.46613345 47.5401904,2.84821341 44.7037232,2.84821341 L43.5096901,2.84821341 L43.7338905,1.00966791 L66.4230741,1.00966791 L66.1993844,2.84821341 L64.2586975,2.84821341 C62.3925738,2.84821341 62.6167742,4.46613345 62.9150272,5.7163444 L65.3036042,15.2762703 L72.3942614,4.9809262 C73.0658412,4.46613345 73.5137313,2.84821341 71.6476076,2.84821341 L70.7518274,2.84821341 L70.9760278,1.00966791 L80.6038777,1.00966791 L80.1559876,2.84821341 L78.4395011,2.84821341 C76.1254873,2.84821341 75.6781079,4.09842435 74.9314542,5.20155166 L66.1993844,17.6296086 L72.8416408,45.3543641 C73.2895309,46.7516586 74.0361846,48.1489532 76.1254873,48.1489532 L77.0958308,48.1489532 L76.7975778,49.7668733 L54.6308475,49.7668733" id="Fill-1"></path>
                <path d="M196.808636,46.0897823 L198.226869,36.4563145 L199.868792,36.4563145 C200.316683,46.0897823 203.675092,47.9283278 206.287359,48.1489532 C209.123826,48.4431205 211.959783,47.1929096 213.601706,44.9131131 C215.46783,42.3391494 215.990283,39.5445603 214.721176,37.4859 L202.704749,16.8941904 C201.062826,14.173143 200.540372,6.8194717 205.764906,3.80425707 C209.123826,1.96571157 212.183472,0.347791525 216.885553,0.347791525 C223.75252,0.347791525 226.588476,1.45091883 229.947397,5.7163444 L228.529163,14.9085612 L226.88724,14.9085612 L226.588476,9.46697723 C225.842333,4.76030074 222.85674,1.45091883 219.05044,1.74508611 C217.408517,1.96571157 215.990283,2.84821341 214.721176,4.46613345 C214.049596,5.7163444 213.079253,7.5548899 215.01994,10.79073 L225.394443,27.8519216 C227.11093,30.4994271 227.260056,32.5585981 227.260056,34.8383945 C227.260056,41.8243567 218.751676,50.281666 207.631029,50.4287497 C202.481059,50.281666 200.316683,48.8108296 196.808636,46.0897823" id="Fill-2"></path>
                <path d="M80.5732353,46.5310332 L86.3202221,5.20155166 C86.4693486,4.09842435 84.1553348,2.84821341 83.4091918,2.84821341 L81.7672685,2.84821341 L81.9909582,1.00966791 L104.680653,1.00966791 C112.069563,1.45091883 119.682162,2.84821341 119.458473,14.173143 C119.159709,21.1596159 113.114469,25.5721251 110.203439,26.9694197 C107.964499,28.1460888 104.680653,29.1021325 101.844185,29.1021325 L98.1124487,29.1021325 L95.7238717,45.5749895 C95.4256188,46.9722841 96.1717618,48.1489532 98.1124487,48.1489532 L100.501026,48.1489532 L99.9785724,49.7668733 L77.0651884,49.7668733 L77.2888781,48.1489532 C79.3786914,47.9283278 80.5732353,47.7077023 80.5732353,46.5310332 Z M101.844185,27.1900452 C103.038219,27.1900452 104.232762,26.7487943 104.456452,25.1308742 C104.680653,24.1748306 106.546266,9.46697723 107.292919,5.7163444 C107.292919,3.58363161 106.098375,2.84821341 104.232762,2.84821341 L101.620496,2.84821341 L98.3361384,27.1900452 L101.844185,27.1900452 L101.844185,27.1900452 Z" id="Fill-3"></path>
                <path d="M314.835596,49.7668733 L303.71495,9.83468633 L298.490416,46.0897823 C298.266216,47.4870768 298.788669,48.1489532 299.90865,48.1489532 L302.520916,48.1489532 L302.073026,49.7668733 L291.922212,49.7668733 L291.922212,48.1489532 L294.310789,48.1489532 C296.176913,48.1489532 296.176913,46.7516586 296.176913,46.0897823 L302.073026,5.20155166 C302.296716,3.58363161 301.625136,2.84821341 297.146746,2.84821341 L297.370946,1.00966791 L315.35805,1.00966791 L324.388883,33.2204744 L328.419383,5.20155166 C328.419383,3.58363161 327.67324,2.84821341 324.388883,2.84821341 L324.613084,1.00966791 L334.763387,1.00966791 L334.539697,2.84821341 L333.121464,2.84821341 C331.47954,2.84821341 330.733397,3.58363161 330.509197,5.20155166 L323.866941,49.7668733 L314.835596,49.7668733" id="Fill-4"></path>
                <path d="M23.1988693,24.6160815 L30.0653261,24.6160815 C32.006013,24.6160815 33.8721367,24.1748306 34.0212631,21.3802414 L34.5437165,18.5121104 L36.1856398,18.5121104 L34.0212631,32.5585981 L32.6781035,32.5585981 L33.1254829,29.4698416 C33.4242466,27.6312961 32.006013,26.2340015 30.3640897,26.2340015 L23.1988693,26.2340015 L20.1392232,48.1489532 L30.3640897,48.1489532 C32.3793399,47.7077023 35.51406,45.795615 37.2305465,36.4563145 L38.8724697,36.4563145 L37.0068568,49.7668733 L0.285995967,49.7668733 L0.733375373,48.1489532 L2.8982627,48.1489532 C4.76387568,48.1489532 5.65965591,46.9722841 5.65965591,46.5310332 L11.6303324,4.46613345 C11.6303324,2.84821341 10.6604997,2.84821341 6.70456261,2.84821341 L6.92825231,1.00966791 L42.4550799,1.00966791 L41.0368464,10.79073 L39.3949231,10.79073 L39.3949231,9.46697723 C39.3949231,6.59884624 39.1712334,2.84821341 36.4098402,2.84821341 L26.3335894,2.84821341 L23.1988693,24.6160815" id="Fill-5"></path>
                <path d="M276.821625,24.6160815 L283.389829,24.6160815 C285.554206,24.6160815 287.196129,24.1748306 287.718582,21.3802414 L288.166472,18.5121104 L289.808396,18.5121104 L287.718582,32.5585981 L286.076659,32.5585981 L286.524549,29.4698416 C286.822802,27.6312961 285.554206,26.2340015 283.912282,26.2340015 L276.597936,26.2340015 L273.537779,48.1489532 L283.688082,48.1489532 C286.076659,47.7077023 288.838052,45.795615 290.554539,36.4563145 L292.196462,36.4563145 L290.106649,49.7668733 L253.908241,49.7668733 L254.132442,48.1489532 L256.296818,48.1489532 C257.938742,48.1489532 259.058211,46.9722841 259.356975,46.5310332 L265.029399,4.46613345 C265.029399,2.84821341 264.059055,2.84821341 260.103118,2.84821341 L260.252245,1.00966791 L295.555383,1.00966791 L294.286786,10.79073 L292.644352,10.79073 L292.644352,9.46697723 C292.644352,6.59884624 292.196462,2.84821341 289.808396,2.84821341 L279.732145,2.84821341 L276.821625,24.6160815" id="Fill-6"></path>
                <path d="M227.438804,46.0897823 L228.856527,36.4563145 L230.573524,36.4563145 C230.72265,46.0897823 234.081571,47.9283278 236.618764,48.1489532 C239.67892,48.4431205 242.589951,47.1929096 244.231874,44.9131131 C245.873797,42.3391494 246.396251,39.5445603 245.351344,37.4859 L233.111227,16.8941904 C231.692994,14.173143 231.17054,6.8194717 236.170873,3.80425707 C239.529794,1.96571157 242.589951,0.347791525 247.515721,0.347791525 C254.233051,0.347791525 257.293208,1.45091883 260.352854,5.7163444 L259.009694,14.9085612 L257.293208,14.9085612 L257.069007,9.46697723 C256.322864,4.76030074 253.56096,1.45091883 249.680097,1.74508611 C247.73941,1.96571157 246.396251,2.84821341 245.351344,4.46613345 C244.754327,5.7163444 243.48522,7.5548899 245.351344,10.79073 L256.099175,27.8519216 C257.741098,30.4994271 257.964788,32.5585981 257.964788,34.8383945 C257.964788,41.8243567 249.157644,50.7229169 238.036997,50.4287497 C232.887027,50.281666 230.72265,48.8108296 227.438804,46.0897823" id="Fill-7"></path>
                <path d="M139.179427,24.6160815 C140.14926,24.6160815 141.343803,24.395456 141.567493,22.4833687 L143.95607,5.20155166 C144.17976,2.84821341 141.343803,2.84821341 138.507847,2.84821341 L135.44769,24.6160815 L139.179427,24.6160815 Z M147.239917,49.7668733 C145.821683,49.7668733 144.17976,48.8108296 144.17976,48.1489532 C143.95607,47.4870768 140.448023,29.7640089 140.14926,29.1021325 C139.70188,28.1460888 139.179427,26.7487943 138.283647,26.7487943 L134.9998,26.2340015 L132.611223,45.3543641 C132.08877,47.1929096 133.059113,48.1489532 135.22349,48.1489532 L136.865413,48.1489532 L136.34296,49.7668733 L112.235542,49.7668733 L112.459743,48.1489532 L114.847809,48.1489532 C116.788496,48.1489532 117.460076,46.9722841 117.684276,46.3104077 L123.1325,5.20155166 C123.3567,4.09842435 122.90881,2.84821341 120.818996,2.84821341 L118.878309,2.84821341 L118.878309,1.00966791 L141.791694,1.00966791 C149.628494,1.00966791 158.360563,2.84821341 157.61442,11.7462629 C156.494951,20.6448232 147.76237,23.8806633 146.792027,24.1748306 C145.821683,24.395456 140.895913,26.0133761 140.14926,26.0133761 C147.76237,27.6312961 152.688651,27.8519216 153.58392,31.1613035 C154.853027,34.8383945 156.494951,43.9570695 156.494951,44.9131131 C156.71864,45.3543641 157.913184,48.1489532 159.555107,48.1489532 L161.197031,48.1489532 L160.674577,49.7668733 L147.239917,49.7668733 L147.239917,49.7668733 Z" id="Fill-8"></path>
                <path d="M160.419734,48.2178987 C162.360421,48.4385241 163.479891,46.9722841 163.479891,46.5310332 L169.152315,4.46613345 C169.152315,2.84821341 168.554788,2.84821341 164.226034,2.84821341 L164.748488,1.00966791 L199.976552,1.00966791 L198.633392,10.79073 L196.991469,10.79073 L196.991469,9.46697723 C196.991469,6.59884624 196.692705,2.84821341 194.080438,2.84821341 L183.930135,2.84821341 L181.093668,24.6160815 L187.736435,24.6160815 C189.900812,24.6160815 191.542735,24.1748306 191.990625,21.3802414 L192.438515,18.5121104 L194.080438,18.5121104 L191.990625,32.5585981 L190.497828,32.5585981 L190.796592,29.4698416 C191.020282,27.6312961 189.900812,26.2340015 188.184325,26.2340015 L181.093668,26.2340015 L177.958948,48.1489532 L188.184325,48.1489532 C190.274139,47.7077023 193.185169,45.795615 194.827092,36.4563145 L196.469015,36.4563145 L194.304128,49.7668733 L159.971844,49.7668733 L160.419734,48.2178987" id="Fill-9"></path>
            </g>
        </g>
    </g>
</svg>