<svg width="658" height="125" viewBox="0 0 658 125" xmlns="http://www.w3.org/2000/svg">
  <path fill="#ffffff" d="M106.41 96.767l.44-3.168h2.337c5.992 0 4.97-3.17 4.238-5.476l-5.7-24.19-17.536 24.19c-2.34 4.175-2.34 5.47 1.895 5.47h2.192l-.44 3.17H74.99l.73-3.17h4.238c2.484 0 4.676-3.167 6.43-5.47l20.02-29.088L94.28 10.51c-.437-2.448-1.752-5.616-7.306-5.616h-2.338l.438-3.6H129.5l-.437 3.6h-3.8c-3.653 0-3.214 3.168-2.63 5.616l4.677 18.72 13.883-20.16c1.315-1.007 2.192-4.175-1.462-4.175h-1.75l.44-3.6h18.85l-.875 3.6h-3.36c-4.532 0-5.408 2.448-6.87 4.608l-17.1 24.335 13.008 54.287c.878 2.736 2.34 5.472 6.43 5.472h1.9l-.584 3.167h-43.41v.003zm278.396-7.2l2.776-18.865h3.216c.877 18.864 7.453 22.464 12.568 22.896 5.553.576 11.106-1.872 14.322-6.336 3.652-5.04 4.676-10.512 2.19-14.544l-23.527-40.32c-3.212-5.327-4.235-19.727 5.995-25.63C408.92 3.168 414.915 0 424.118 0c13.445 0 19 2.16 25.575 10.512l-2.776 18H443.7l-.583-10.656c-1.462-9.216-7.308-15.696-14.76-15.12-3.216.432-5.993 2.16-8.478 5.328-1.32 2.448-3.22 6.048.58 12.384l20.315 33.408c3.36 5.184 3.653 9.216 3.653 13.68 0 13.68-16.66 30.24-38.434 30.527-10.084-.29-14.322-3.168-21.19-8.497h.002zm-227.598.863L168.46 9.505c.293-2.16-4.237-4.608-5.7-4.608h-3.214l.438-3.6h44.427c14.47.864 29.38 3.6 28.94 25.775-.584 13.68-12.42 22.32-18.12 25.056-4.385 2.304-10.815 4.176-16.37 4.176h-7.307l-4.676 32.255c-.585 2.733.877 5.04 4.677 5.04h4.677l-1.022 3.165H150.34l.44-3.168c4.093-.43 6.43-.864 6.43-3.167h-.002zm41.65-37.87c2.34 0 4.678-.865 5.116-4.033.438-1.872 4.092-30.67 5.554-38.016 0-4.172-2.338-5.612-5.992-5.612h-5.115l-6.43 47.664h6.87l-.002-.002zM615.91 96.767l-21.774-78.19-10.23 70.99c-.437 2.736.585 4.032 2.776 4.032h5.116l-.877 3.164H571.05V93.6h4.677c3.653 0 3.653-2.737 3.653-4.033L590.92 9.505c.44-3.168-.877-4.608-9.645-4.608l.44-3.6h35.22l17.683 63.07 7.892-54.862c0-3.168-1.46-4.608-7.892-4.608l.44-3.6h19.874l-.438 3.6h-2.777c-3.215 0-4.677 1.44-5.115 4.608l-13.007 87.263H615.91zM44.866 47.52H58.31c3.8 0 7.455-.865 7.747-6.337l1.023-5.616h3.215L66.057 63.07h-2.63l.876-6.047c.585-3.6-2.192-6.335-5.408-6.335h-14.03l-5.99 42.91h20.02c3.946-.863 10.084-4.607 13.445-22.895h3.215l-3.653 26.064H0L.877 93.6h4.238c3.654 0 5.407-2.305 5.407-3.17L22.214 8.065c0-3.168-1.9-3.168-9.645-3.168l.435-3.6H82.57l-2.775 19.15H76.58v-2.59c0-5.617-.438-12.96-5.846-12.96h-19.73L44.866 47.52zm496.61 0h12.86c4.24 0 7.454-.865 8.478-6.337l.877-5.616h3.22l-4.093 27.504H559.6l.876-6.044c.584-3.6-1.9-6.335-5.115-6.335h-14.32l-5.99 42.91h19.876c4.677-.863 10.084-4.607 13.445-22.895h3.216l-4.092 26.064h-70.88l.44-3.17h4.24c3.214 0 5.405-2.304 5.99-3.17L518.39 8.065c0-3.168-1.9-3.168-9.646-3.168l.293-3.6h69.126l-2.485 19.15h-3.216v-2.59c0-5.617-.878-12.96-5.554-12.96h-19.73L541.48 47.52h-.004zM444.78 89.566l2.777-18.864h3.36c.293 18.864 6.87 22.464 11.84 22.896 5.99.576 11.69-1.872 14.906-6.336 3.214-5.04 4.237-10.512 2.19-14.544l-23.966-40.32c-2.777-5.327-3.8-19.727 5.99-25.63 6.58-3.6 12.57-6.768 22.217-6.768 13.153 0 19.145 2.16 25.137 10.512l-2.63 18h-3.36l-.44-10.656c-1.46-9.216-6.87-15.696-14.465-15.12-3.8.432-6.43 2.16-8.477 5.328-1.17 2.448-3.653 6.048 0 12.384L500.9 53.856c3.215 5.184 3.653 9.216 3.653 13.68 0 13.68-17.245 31.103-39.02 30.527-10.083-.29-14.322-3.168-20.752-8.497zM271.963 47.52c1.9 0 4.238-.433 4.677-4.177l4.676-33.84c.438-4.607-5.115-4.607-10.67-4.607l-5.99 42.624h7.307zm15.784 49.247c-2.777 0-5.992-1.872-5.992-3.168-.438-1.3-7.307-36-7.892-37.3-.877-1.87-1.9-4.607-3.653-4.607l-6.43-1.008-4.677 37.44c-1.023 3.6.876 5.47 5.115 5.47h3.215l-1.023 3.17h-47.204l.44-3.17h4.675c3.8 0 5.12-2.303 5.558-3.6L240.548 9.5c.437-2.16-.44-4.607-4.532-4.607h-3.8v-3.6h44.866c15.345 0 32.443 3.6 30.98 21.023-2.19 17.423-19.29 23.758-21.19 24.334-1.9.433-11.543 3.6-13.005 3.6 14.907 3.168 24.552 3.6 26.306 10.08 2.485 7.2 5.7 25.057 5.7 26.93.44.863 2.778 6.335 5.993 6.335h3.215l-1.022 3.168H287.75l-.003.004zm25.807-3.034c3.8.432 5.992-2.438 5.992-3.302l11.107-82.363c0-3.168-1.17-3.168-9.645-3.168l1.023-3.6h68.98l-2.63 19.15h-3.212v-2.59c0-5.618-.585-12.96-5.7-12.96H359.59l-5.554 42.622h13.007c4.238 0 7.453-.864 8.33-6.336l.876-5.616h3.212l-4.092 27.504h-2.922l.584-6.046c.438-3.6-1.754-6.335-5.116-6.335h-13.884l-6.138 42.91h20.02c4.094-.863 9.793-4.607 13.008-22.895h3.216L379.9 96.77h-67.226l.876-3.035.004-.002z"/>
</svg>
