<svg xmlns="http://www.w3.org/2000/svg" viewBox="0 0 75 20"><path d="M32.116 6.499c-1-.773-2.491-1.166-4.43-1.166-1.672 0-3.483.282-4.525.526-.263.062-.41.222-.41.446v2.044c0 .23.116.34.357.34h.13a56.8 56.8 0 0 1 4.37-.176c1.254 0 2.094.314 2.094 1.854v1.021h-1.543c-2.242 0-3.832.332-4.859 1.008-1.003.666-1.496 1.696-1.496 3.146v.229c0 3.68 2.744 4.229 4.382 4.229 1.4 0 2.443-.325 3.59-1.114l.189-.131v.624a.4.4 0 0 0 .406.393h2.95a.403.403 0 0 0 .407-.393v-9.012c0-1.736-.545-3.038-1.612-3.868zM29.753 16.66l-.062.035c-.78.43-1.493.637-2.17.637-1.105 0-1.742-.25-1.742-1.544v-.257c0-1.601.647-2.199 2.386-2.199h1.588v3.328zM43.92 5.333c-1.256 0-2.515.436-3.44 1.204l-.19.155v-.758a.404.404 0 0 0-.405-.399H36.78a.402.402 0 0 0-.403.399v13.642c0 .216.21.424.43.424h3.153c.216 0 .408-.2.408-.424V9.48l.058-.03c1.154-.614 2.272-.911 3.415-.911h.211c.16 0 .275-.198.275-.375V5.727a.402.402 0 0 0-.408-.394zM70.54 6.5c-1-.773-2.488-1.166-4.428-1.166-1.67 0-3.484.282-4.526.526-.263.062-.409.222-.409.446V8.35c0 .23.116.34.356.34h.131c.78-.072 2.663-.176 4.37-.176 1.255 0 2.09.314 2.09 1.854v1.021h-1.539c-2.245 0-3.832.332-4.856 1.008-1.009.666-1.501 1.696-1.501 3.146v.229c0 3.68 2.745 4.229 4.384 4.229 1.4 0 2.438-.325 3.59-1.114l.187-.131v.624c0 .216.183.393.406.393h2.95a.4.4 0 0 0 .407-.393v-9.012c0-1.736-.543-3.038-1.611-3.868zm-2.361 10.16l-.069.035c-.777.43-1.487.637-2.168.637-1.1 0-1.738-.25-1.738-1.544v-.257c0-1.601.644-2.199 2.385-2.199h1.59v3.328zM54.17 5.333c-1.764 0-2.956.351-4.4 1.312l-.194.126v-.837c0-.22-.19-.399-.422-.399h-3.07c-.239 0-.43.179-.43.399v13.642c0 .216.222.424.454.424h3.315c.232 0 .43-.2.43-.424V9.405l.065-.03c1.01-.501 1.847-.836 2.636-.836 1.838 0 2.15.77 2.15 2.499v8.538c0 .225.2.424.426.424h3.315c.237 0 .458-.208.458-.424v-8.538c0-3.998-1.418-5.705-4.733-5.705zM20.103 0H16.93c-.226 0-.426.19-.426.407v19.156c0 .223.207.437.426.437h3.173c.229 0 .376-.226.376-.437V.407c0-.233-.164-.407-.376-.407zm53.176 5.064h-.296v1.019c0 .017-.014.033-.031.033h-.168a.034.034 0 0 1-.034-.033v-1.02h-.295c-.018 0-.035-.01-.035-.03V4.9c0-.019.017-.031.035-.031h.824c.018 0 .034.012.034.03v.135c0 .018-.016.03-.034.03zm1.255 1.052h-.168c-.015 0-.026-.016-.026-.033v-.78c0-.013-.004-.021-.004-.021l-.011.013-.162.322a.065.065 0 0 1-.054.031h-.171a.065.065 0 0 1-.054-.03l-.163-.323s-.007-.013-.01-.013c0 0-.004.008-.004.02v.78c0 .018-.013.034-.026.034h-.17c-.016 0-.03-.009-.03-.025V4.934c0-.036.032-.065.07-.065h.135c.028 0 .051.016.065.038l.254.517c.007.014.01.022.016.022.009 0 .013-.008.02-.022l.254-.517c.014-.022.035-.038.063-.038h.14c.036 0 .065.03.065.065V6.09c0 .016-.012.025-.029.025zm-69.17 4.472c.039 3.346 1.83 6.458 4.688 8.138A9.26 9.26 0 0 0 14.622 20a9.613 9.613 0 0 0-1.252-4.647c-1.656-2.905-4.716-4.724-8.006-4.765zm0-1.176c3.29-.042 6.35-1.861 8.006-4.769A9.602 9.602 0 0 0 14.622 0a9.253 9.253 0 0 0-4.57 1.275c-2.858 1.68-4.649 4.79-4.688 8.137zM3.776 0H1.16C.522 0 0 .53 0 1.181v18.384c0 .207.18.435.466.435h2.617c.639 0 1.16-.527 1.16-1.184V.407c0-.233-.2-.407-.467-.407z" fill="#fff"/></svg>