<svg xmlns="http://www.w3.org/2000/svg" viewBox="0 0 75 20" version="1.1"><g transform="translate(-110.000000, -24.000000)" fill="#ffffff"><path d="M142.115581,30.4988014 C141.11636,29.7258794 139.624994,29.3333333 137.685769,29.3333333 C136.013517,29.3333333 134.203425,29.6153938 133.161409,29.8590349 C132.898168,29.92084 132.750624,30.080722 132.750624,30.305034 L132.750624,32.3486599 C132.750624,32.5789377 132.867067,32.688946 133.108164,32.688946 L133.23854,32.688946 C134.019057,32.6166412 135.902299,32.5130758 137.607394,32.5130758 C138.861645,32.5130758 139.701627,32.8273513 139.701627,34.3667524 L139.701627,35.3883267 L138.158508,35.3883267 C135.917477,35.3883267 134.327084,35.7200221 133.300245,36.3958218 C132.297292,37.0623149 131.803654,38.0922413 131.803654,39.5421561 L131.803654,39.7710021 C131.803654,43.4504355 134.548027,44 136.18644,44 C137.586245,44 138.62851,43.6754634 139.77627,42.8855987 L139.964619,42.7548295 L139.964619,43.3788466 C139.964619,43.5952838 140.145006,43.7723471 140.371423,43.7723471 L143.320816,43.7723471 C143.543999,43.7723471 143.728367,43.5952838 143.728367,43.3788466 L143.728367,34.3667524 C143.728367,32.630959 143.182727,31.3285173 142.115581,30.4988014 L142.115581,30.4988014 Z M139.753462,40.6612132 L139.690714,40.6960797 C138.911115,41.1252067 138.198171,41.3333333 137.521363,41.3333333 C136.415812,41.3333333 135.778558,41.0828305 135.778558,39.7892808 L135.778558,39.5320728 C135.778558,37.9308927 136.425579,37.3333333 138.164966,37.3333333 L139.753462,37.3333333 L139.753462,40.6612132 Z M153.919514,29.3333333 C152.664411,29.3333333 151.40512,29.7691545 150.479802,30.537053 L150.289664,30.6919416 L150.289664,29.9339812 C150.289664,29.7136467 150.104453,29.535246 149.88476,29.535246 L146.781237,29.535246 C146.561298,29.535246 146.378303,29.7136467 146.378303,29.9339812 L146.378303,43.5755713 C146.378303,43.7922699 146.587405,44 146.807344,44 L149.961111,44 C150.177355,44 150.368724,43.8007536 150.368724,43.5755713 L150.368724,33.4804213 L150.427341,33.4506071 C151.581219,32.8356581 152.699138,32.5389701 153.842178,32.5389701 L154.05325,32.5389701 C154.212109,32.5389701 154.328112,32.3406932 154.328112,32.1637469 L154.328112,29.7272206 C154.328112,29.5107644 154.144625,29.3333333 153.919514,29.3333333 Z M180.540552,30.4988014 C179.540024,29.7258794 178.05155,29.3333333 176.111706,29.3333333 C174.441839,29.3333333 172.627901,29.6153938 171.585571,29.8590349 C171.32306,29.92084 171.177497,30.080722 171.177497,30.305034 L171.177497,32.3486599 C171.177497,32.5789377 171.292703,32.688946 171.532571,32.688946 L171.663951,32.688946 C172.444516,32.6166412 174.326881,32.5130758 176.033326,32.5130758 C177.289149,32.5130758 178.123958,32.8273513 178.123958,34.3667524 L178.123958,35.3883267 L176.585221,35.3883267 C174.339571,35.3883267 172.752811,35.7200221 171.729143,36.3958218 C170.720404,37.0623149 170.22773,38.0922413 170.22773,39.5421561 L170.22773,39.7710021 C170.22773,43.4504355 172.972773,44 174.612284,44 C176.012923,44 177.050027,43.6754634 178.201094,42.8855987 L178.388957,42.7548295 L178.388957,43.3788466 C178.388957,43.5952838 178.572093,43.7723471 178.794543,43.7723471 L181.744121,43.7723471 C181.971547,43.7723471 182.152443,43.5952838 182.152443,43.3788466 L182.152443,34.3667524 C182.152443,32.630959 181.609008,31.3285173 180.540552,30.4988014 Z M178.177539,40.6612132 L178.108968,40.6960797 C177.332484,41.1252067 176.622375,41.3333333 175.94106,41.3333333 C174.841489,41.3333333 174.202634,41.0828305 174.202634,39.7892808 L174.202634,39.5320728 C174.202634,37.9308927 174.846857,37.3333333 176.587723,37.3333333 L178.177539,37.3333333 L178.177539,40.6612132 Z M164.170455,29.3333333 C162.405593,29.3333333 161.214416,29.6840748 159.769189,30.6451599 L159.575801,30.770719 L159.575801,29.9339812 C159.575801,29.7136467 159.386561,29.535246 159.153769,29.535246 L156.083149,29.535246 C155.845172,29.535246 155.65308,29.7136467 155.65308,29.9339812 L155.65308,43.5755713 C155.65308,43.7922699 155.875762,44 156.108294,44 L159.423112,44 C159.655126,44 159.853699,43.8007536 159.853699,43.5755713 L159.853699,33.4050374 L159.918248,33.3747383 C160.92874,32.8737137 161.764509,32.5389701 162.554134,32.5389701 C164.392359,32.5389701 164.70318,33.3080805 164.70318,35.0380335 L164.70318,43.5755713 C164.70318,43.8007536 164.903826,44 165.129619,44 L168.444696,44 C168.681895,44 168.902762,43.7922699 168.902762,43.5755713 L168.902762,35.0380335 C168.902762,31.0402591 167.485014,29.3333333 164.170455,29.3333333 Z M130.102777,24 L126.929778,24 C126.70438,24 126.503781,24.1905546 126.503781,24.4065497 L126.503781,43.5632709 C126.503781,43.7862496 126.710518,44 126.929778,44 L130.102777,44 C130.331858,44 130.478685,43.7735294 130.478685,43.5632709 L130.478685,24.4065497 C130.478685,24.1740931 130.315407,24 130.102777,24 Z M183.279497,29.0636667 L182.983218,29.0636667 L182.983218,30.0825111 C182.983218,30.0998667 182.969226,30.1162444 182.951798,30.1162444 L182.783898,30.1162444 C182.76377,30.1162444 182.750023,30.0998667 182.750023,30.0825111 L182.750023,29.0636667 L182.455217,29.0636667 C182.437052,29.0636667 182.419624,29.0524222 182.419624,29.0338444 L182.419624,28.8998889 C182.419624,28.8810667 182.437052,28.8688444 182.455217,28.8688444 L183.279497,28.8688444 C183.297417,28.8688444 183.313126,28.8810667 183.313126,28.8998889 L183.313126,29.0338444 C183.313126,29.0524222 183.297417,29.0636667 183.279497,29.0636667 Z M184.534329,30.1162444 L184.366183,30.1162444 C184.351455,30.1162444 184.340409,30.0998667 184.340409,30.0825111 L184.340409,29.3022444 C184.340409,29.2895333 184.336236,29.2819556 184.336236,29.2819556 L184.324945,29.2946667 L184.163181,29.6170889 C184.153117,29.6356667 184.129552,29.6481333 184.108688,29.6481333 L183.937596,29.6481333 C183.915995,29.6481333 183.896358,29.6356667 183.884085,29.6170889 L183.720603,29.2946667 C183.720603,29.2946667 183.714466,29.2819556 183.710784,29.2819556 C183.710784,29.2819556 183.707348,29.2895333 183.707348,29.3022444 L183.707348,30.0825111 C183.707348,30.0998667 183.694338,30.1162444 183.681083,30.1162444 L183.511464,30.1162444 C183.495018,30.1162444 183.481763,30.1069556 183.481763,30.0910667 L183.481763,28.9336222 C183.481763,28.8984222 183.512692,28.8688444 183.550248,28.8688444 L183.685992,28.8688444 C183.714466,28.8688444 183.737049,28.8852222 183.75055,28.9069778 L184.0051,29.4237333 C184.012464,29.4384 184.015901,29.4457333 184.021056,29.4457333 C184.029647,29.4457333 184.03382,29.4384 184.040938,29.4237333 L184.295243,28.9069778 C184.308744,28.8852222 184.330099,28.8688444 184.357837,28.8688444 L184.49849,28.8688444 C184.534329,28.8688444 184.563294,28.8984222 184.563294,28.9336222 L184.563294,30.0910667 C184.563294,30.1069556 184.550775,30.1162444 184.534329,30.1162444 Z M115.364207,34.5882353 C115.402991,37.9342026 117.193924,41.0456803 120.052397,42.7260229 C121.438062,43.5407496 123.014702,43.9787962 124.62227,44 C124.603124,42.3638113 124.172328,40.759553 123.369648,39.3528648 C121.714459,36.4476881 118.654458,34.6288968 115.364207,34.5882353 Z M115.364207,33.4117647 C118.654458,33.3698548 121.714459,31.5510153 123.369648,28.643267 C124.172328,27.2375393 124.603124,25.6337375 124.62227,24 C123.014702,24.0197076 121.438062,24.4610088 120.052397,25.2750087 C117.193924,26.9551464 115.402991,30.0642119 115.364207,33.4117647 Z M113.77554,24 L111.160081,24 C110.521865,24 110,24.53075 110,25.181 L110,43.5645 C110,43.7715 110.179191,44 110.465898,44 L113.082584,44 C113.722028,44 114.243893,43.47325 114.243893,42.81575 L114.243893,24.4075 C114.243893,24.1745 114.042118,24 113.77554,24 Z"></path></g></svg>
