<svg viewBox="0 0 794 142" xmlns="http://www.w3.org/2000/svg"><title>Skandia Bank &amp; Försäkring</title><path fill="#fff" d="M273 109h-12c-8 0-14-5-14-11 0-8 7-11 14-11h12v22zm225-2h-4c-19 0-27-9-27-25 0-17 9-25 27-25h4v50zm-404-6c0-39-57-29-57-42 0-5 3-5 20-5 10 0 20 1 31 2V33c-12-2-24-2-36-2-32 0-52 8-52 29 0 38 57 28 57 41 0 4-3 6-20 6-13 0-26-1-38-2v26c11 2 29 2 43 2 28-1 52-9 52-32m119 29l-40-52 35-45h-38l-23 31c-1 2-4 2-8 2V0h-34v130h34V89c3 0 7 0 8 2l28 38h38zm101 0c-4-5-6-9-6-15V65c0-31-27-34-51-34-12 0-23 1-35 2v23c9-1 19-2 29-2 15 0 22 3 22 9v4h-11c-27 0-50 8-50 31 0 24 14 35 33 35 14 0 22-2 29-10 1 3 2 5 4 8h36zm107 0V66c0-16-6-35-34-35-12 0-22 5-27 10-1-3-3-5-5-8h-35c4 5 6 9 6 15v82h34V56h12c12 0 15 6 15 16v58h34zm117 0c-4-5-6-9-6-15V0h-34v33h-9c-38 0-56 21-56 48 0 31 15 51 39 51 13 0 21-3 26-10 1 3 3 5 5 8h35zm49-97h-34v97h34V33zm0-33h-34v22h34V0zm114 130c-4-5-6-9-6-15V65c0-31-27-34-51-34-12 0-23 1-35 2v23c9-1 19-2 29-2 15 0 22 3 22 9v4h-11c-27 0-50 8-50 31 0 24 14 35 33 35 14 0 22-2 29-10 1 3 2 5 4 8h36zm-41-21h-12c-8 0-14-5-14-11 0-8 7-11 14-11h12v22zm104 33c-17 0-30-12-30-27s13-27 30-27 30 12 30 27-14 27-30 27m0-69c-17 0-30-12-30-27s13-27 30-27 30 12 30 27-14 27-30 27"/></svg>