<?xml version="1.0" encoding="UTF-8"?>
<svg width="375px" height="200px" viewBox="0 0 375 200" version="1.1" xmlns="http://www.w3.org/2000/svg" xmlns:xlink="http://www.w3.org/1999/xlink">
    <!-- Generator: Sketch 42 (36781) - http://www.bohemiancoding.com/sketch -->
    <title>logo/skandia</title>
    <desc>Created with Sketch.</desc>
    <defs>
        <polygon id="path-1" points="0.06 51 283.465 51 283.465 0.461 0.06 0.461"></polygon>
    </defs>
    <g id="Symbols" stroke="none" stroke-width="1" fill="none" fill-rule="evenodd">
        <g id="logo/skandia">
            <rect id="boundary" x="0" y="0" width="375" height="200"></rect>
            <g id="140901-Skandia_100_CMYK_White_EPS" transform="translate(46.000000, 74.000000)">
                <mask id="mask-2" fill="white">
                    <use xlink:href="#path-1"></use>
                </mask>
                <g id="Clip-2"></g>
                <path d="M197.183,8.203 L209.486,8.203 L209.486,0.461 L197.183,0.461 L197.183,8.203 Z M197.183,46.786 L209.486,46.786 L209.486,12.215 L197.183,12.215 L197.183,46.786 Z M177.825,38.485 L176.437,38.485 C169.801,38.485 166.899,35.446 166.899,29.496 C166.899,23.555 169.944,20.512 176.437,20.512 L177.825,20.512 L177.825,38.485 Z M190.125,0.461 L177.825,0.461 L177.825,12.215 L174.641,12.215 C161.226,12.215 154.593,19.544 154.593,29.496 C154.593,40.699 159.845,47.614 168.561,47.614 C173.123,47.614 175.89,46.645 177.962,44.017 C178.374,45.126 178.927,45.953 179.615,46.786 L192.202,46.786 C190.819,45.126 190.125,43.738 190.125,41.527 L190.125,0.461 Z M272.743,31.645 C266.8,31.645 262.028,36 262.028,41.321 C262.028,46.645 266.8,51 272.743,51 C278.69,51 283.465,46.645 283.465,41.321 C283.465,36 278.69,31.645 272.743,31.645 Z M235.892,39.18 L231.474,39.18 C228.568,39.18 226.357,37.52 226.357,35.305 C226.357,32.539 228.839,31.434 231.474,31.434 L235.892,31.434 L235.892,39.18 Z M248.202,23.555 C248.202,12.625 238.661,11.387 229.957,11.387 C225.795,11.387 221.65,11.796 217.503,12.215 L217.503,20.371 C220.823,19.957 224.421,19.683 228.015,19.683 C233.545,19.683 235.892,20.653 235.892,22.723 L235.892,24.106 L232.022,24.106 C222.491,24.106 214.046,26.872 214.046,35.305 C214.046,43.738 219.167,47.614 225.937,47.614 C230.783,47.614 233.965,46.786 236.179,44.017 C236.448,45.126 237.002,45.953 237.698,46.786 L250.279,46.786 C248.896,45.126 248.202,43.738 248.202,41.527 L248.202,23.555 Z M272.743,26.594 C278.69,26.594 283.465,22.238 283.465,16.914 C283.465,11.59 278.69,7.234 272.743,7.234 C266.8,7.234 262.028,11.59 262.028,16.914 C262.028,22.238 266.8,26.594 272.743,26.594 Z M74.253,12.215 L60.564,12.215 L52.408,23.141 C51.993,23.692 50.883,23.965 49.643,23.965 L49.643,0.461 L37.339,0.461 L37.339,46.786 L49.643,46.786 L49.643,32.266 C50.742,32.266 51.993,32.403 52.408,33.098 L62.358,46.786 L76.056,46.786 L61.806,28.118 L74.253,12.215 Z M138.134,11.387 C133.987,11.387 130.118,13.183 128.319,14.981 C128.047,13.87 127.346,13.044 126.658,12.215 L114.073,12.215 C115.455,13.87 116.151,15.254 116.151,17.469 L116.151,46.786 L128.459,46.786 L128.459,20.512 L132.748,20.512 C137.17,20.512 138.134,22.587 138.134,26.047 L138.134,46.786 L150.444,46.786 L150.444,23.965 C150.444,18.435 148.366,11.387 138.134,11.387 Z M13.133,21.753 C13.133,20.094 14.381,19.82 20.192,19.82 C23.922,19.82 27.378,20.094 31.11,20.653 L31.11,12.215 C26.688,11.661 22.54,11.387 18.109,11.387 C7.051,11.387 0,14.289 0,21.895 C0,35.305 20.469,31.712 20.469,36.415 C20.469,37.794 19.356,38.485 13.41,38.485 C8.852,38.485 4.012,38.211 0,37.657 L0,46.786 C3.875,47.336 10.364,47.614 15.489,47.614 C25.158,47.614 33.598,44.571 33.598,36.555 C33.598,22.587 13.133,26.18 13.133,21.753 Z M97.619,39.18 L93.196,39.18 C90.295,39.18 88.08,37.52 88.08,35.305 C88.08,32.539 90.568,31.434 93.196,31.434 L97.619,31.434 L97.619,39.18 Z M109.927,23.555 C109.927,12.625 100.384,11.387 91.673,11.387 C87.528,11.387 83.38,11.796 79.236,12.215 L79.236,20.371 C82.552,19.957 86.146,19.683 89.743,19.683 C95.271,19.683 97.619,20.653 97.619,22.723 L97.619,24.106 L93.751,24.106 C84.211,24.106 75.775,26.872 75.775,35.305 C75.775,43.738 80.891,47.614 87.666,47.614 C92.505,47.614 95.683,46.786 97.897,44.017 C98.174,45.126 98.727,45.953 99.42,46.786 L112.002,46.786 C110.62,45.126 109.927,43.738 109.927,41.527 L109.927,23.555 L109.927,23.555 Z" id="Fill-1" fill="#FFFFFF" mask="url(#mask-2)"></path>
            </g>
        </g>
    </g>
</svg>