<?xml version="1.0" encoding="UTF-8"?>
<svg width="48px" height="48px" viewBox="0 0 48 48" version="1.1" xmlns="http://www.w3.org/2000/svg" xmlns:xlink="http://www.w3.org/1999/xlink">
    <!-- Generator: Sketch 42 (36781) - http://www.bohemiancoding.com/sketch -->
    <title>icon/LinkedIn</title>
    <desc>Created with Sketch.</desc>
    <defs></defs>
    <g id="web-pb01" stroke="none" stroke-width="1" fill="none" fill-rule="evenodd">
        <g id="section/C-who" transform="translate(-306.000000, -498.000000)">
            <g id="person" transform="translate(0.000000, 192.000000)">
                <g id="icon/LinkedIn" transform="translate(306.000000, 306.000000)">
                    <g>
                        <ellipse id="Oval-3" fill="#FFFFFF" cx="24" cy="24" rx="24" ry="24"></ellipse>
                        <path d="M24,0 C37.255,0 48,10.745 48,24 C48,37.255 37.255,48 24,48 C10.745,48 0,37.255 0,24 C0,10.745 10.745,0 24,0 Z M18.125,33.9475 L18.125,18.3075 L13.265,18.3075 L13.265,33.9475 L18.125,33.9475 Z M15.665,16.3875 C17.295,16.3875 18.285,15.3 18.285,13.955 C18.255,12.5825 17.295,11.5275 15.7275,11.5275 C14.16,11.5275 13.1375,12.5825 13.1375,13.955 C13.1375,15.3 14.13,16.3875 15.665,16.3875 Z M35.875,33.9475 L35.875,24.7 C35.875,20.095 33.4775,17.9525 30.28,17.9525 C27.6575,17.9525 26.09,19.4575 25.45,20.4775 L25.3525,20.4775 L25.13,18.305 L20.9075,18.305 C20.9725,19.71 21.035,21.3425 21.035,23.295 L21.035,33.945 L25.8975,33.945 L25.8975,24.9275 C25.8975,24.48 25.93,24.03 26.06,23.7125 C26.4125,22.82 27.21,21.8925 28.5525,21.8925 C30.31,21.8925 31.015,23.2625 31.015,25.28 L31.015,33.9475 L35.875,33.9475 Z" id="Combined-Shape" fill="#0072AD"></path>
                    </g>
                </g>
            </g>
        </g>
    </g>
</svg>