<svg width="48" height="48" viewBox="0 0 48 48" xmlns="http://www.w3.org/2000/svg"><title>icon/LinkedIn</title><g fill="none" fill-rule="evenodd"><ellipse fill="#FFF" cx="24" cy="24" rx="24" ry="24"/><path d="M24 0c13.255 0 24 10.745 24 24S37.255 48 24 48 0 37.255 0 24 10.745 0 24 0zm-5.875 33.947v-15.64h-4.86v15.64h4.86zm-2.46-17.56c1.63 0 2.62-1.087 2.62-2.432-.03-1.373-.99-2.428-2.558-2.428-1.567 0-2.59 1.056-2.59 2.428 0 1.345.993 2.432 2.528 2.432zm20.21 17.56V24.7c0-4.605-2.398-6.747-5.595-6.747-2.623 0-4.19 1.505-4.83 2.524h-.098l-.222-2.172h-4.223c.066 1.405.128 3.038.128 4.99v10.65h4.863v-9.018c0-.447.032-.897.162-1.215.353-.892 1.15-1.82 2.492-1.82 1.758 0 2.463 1.37 2.463 3.388v8.667h4.86z" fill="#0072AD"/></g></svg>