<svg width="32" height="32" viewBox="0 0 32 32" xmlns="http://www.w3.org/2000/svg"><title>icon/entypo/mobile</title><g fill="none" fill-rule="evenodd"><ellipse fill="#FF4476" cx="16" cy="16" rx="16" ry="16"/><path d="M22.75 10H9.25A2.256 2.256 0 0 0 7 12.25v7.875a2.256 2.256 0 0 0 2.25 2.25h4.5l4.5 3.375v-3.375h4.5a2.257 2.257 0 0 0 2.25-2.25V12.25A2.257 2.257 0 0 0 22.75 10zM11.5 16.75a1.125 1.125 0 1 1 0-2.25 1.125 1.125 0 0 1 0 2.25zm4.5 0a1.125 1.125 0 1 1 0-2.25 1.125 1.125 0 0 1 0 2.25zm4.5 0a1.125 1.125 0 1 1 0-2.25 1.125 1.125 0 0 1 0 2.25z" fill="#FFF"/></g></svg>